/* XPM */
static char * maximize_prelight_xpm[] = {
"24 24 3 1",
" 	c None",
".	c #344042",
"+	c #62BDB3 s active_color_1",
"........................",
"........................",
"........................",
"........................",
"........................",
"........................",
"........................",
"........................",
"........++++++++........",
"........++++++++........",
"........++....++........",
"........++....++........",
"........++....++........",
"........++....++........",
"........++++++++........",
"........++++++++........",
"........................",
"........................",
"........................",
"........................",
"........................",
"........................",
"........................",
"........................"};
