/* XPM */
static char * shade_toggled_prelight_xpm[] = {
"24 24 3 1",
" 	c None",
".	c #191716",
"+	c #604848 s active_color_1",
"........................",
"........................",
"........................",
"........................",
"........................",
"........................",
"........................",
"........................",
"...........++...........",
"...........++...........",
"...........++...........",
".......+++.++.+++.......",
"........++++++++........",
".........++++++.........",
"..........++++..........",
"...........++...........",
"........................",
"........................",
"........................",
"........................",
"........................",
"........................",
"........................",
"........................"};
